<svg width="50" height="50" viewBox="0 0 50 50" fill="none" xmlns="http://www.w3.org/2000/svg">
<path fill-rule="evenodd" clip-rule="evenodd" d="M25 50C38.8071 50 50 38.8071 50 25C50 11.1929 38.8071 0 25 0C11.1929 0 0 11.1929 0 25C0 38.8071 11.1929 50 25 50ZM32.7991 11.6461C33.1788 10.2976 31.8701 9.50017 30.675 10.3516L13.9914 22.237C12.6953 23.1604 12.8991 25 14.2976 25H18.6909V24.966H27.2531L20.2765 27.4276L17.2009 38.354C16.8213 39.7025 18.1298 40.4999 19.325 39.6484L36.0086 27.7631C37.3048 26.8397 37.1008 25 35.7024 25H29.0401L32.7991 11.6461Z" fill="currentColor"/>
</svg>
